<svg width="86" height="86" viewBox="0 0 86 86" fill="none" xmlns="http://www.w3.org/2000/svg">
<path d="M80.8399 58.4083L53.3558 12.8283C52.2444 11.0897 50.7133 9.65892 48.9034 8.66782C47.0936 7.67672 45.0634 7.15723 42.9999 7.15723C40.9365 7.15723 38.9063 7.67672 37.0965 8.66782C35.2866 9.65892 33.7555 11.0897 32.6441 12.8283L5.15995 58.4083C4.18906 60.0267 3.66136 61.8722 3.62991 63.7593C3.59846 65.6463 4.06437 67.5084 4.98079 69.1583C6.0403 71.0154 7.5739 72.5579 9.42484 73.6282C11.2758 74.6985 13.3777 75.2581 15.5158 75.25H70.4841C72.6081 75.2726 74.7006 74.7346 76.5502 73.6902C78.3999 72.6459 79.9414 71.1321 81.0191 69.3016C81.9624 67.6346 82.4432 65.7458 82.4117 63.8306C82.3802 61.9154 81.8376 60.0434 80.8399 58.4083ZM42.9999 60.9166C42.2912 60.9166 41.5984 60.7065 41.0092 60.3127C40.4199 59.919 39.9606 59.3593 39.6894 58.7046C39.4182 58.0498 39.3472 57.3293 39.4855 56.6342C39.6237 55.9391 39.965 55.3006 40.4661 54.7995C40.9673 54.2984 41.6058 53.9571 42.3009 53.8188C42.996 53.6805 43.7165 53.7515 44.3712 54.0227C45.026 54.2939 45.5856 54.7532 45.9794 55.3425C46.3731 55.9318 46.5833 56.6246 46.5833 57.3333C46.5833 58.2837 46.2058 59.1951 45.5337 59.8671C44.8617 60.5391 43.9503 60.9166 42.9999 60.9166ZM46.5833 46.5833C46.5833 47.5337 46.2058 48.4451 45.5337 49.1171C44.8617 49.7891 43.9503 50.1666 42.9999 50.1666C42.0496 50.1666 41.1382 49.7891 40.4661 49.1171C39.7941 48.4451 39.4166 47.5337 39.4166 46.5833V32.25C39.4166 31.2996 39.7941 30.3882 40.4661 29.7162C41.1382 29.0442 42.0496 28.6666 42.9999 28.6666C43.9503 28.6666 44.8617 29.0442 45.5337 29.7162C46.2058 30.3882 46.5833 31.2996 46.5833 32.25V46.5833Z" fill="#FF220E" fill-opacity="0.2"/>
<path d="M76.44 56.6166L52.1517 16.3366C51.1695 14.8002 49.8164 13.5358 48.217 12.6599C46.6176 11.784 44.8235 11.325 43 11.325C41.1765 11.325 39.3823 11.784 37.783 12.6599C36.1836 13.5358 34.8304 14.8002 33.8483 16.3366L9.55999 56.6166C8.70199 58.0468 8.23566 59.6778 8.20786 61.3454C8.18007 63.013 8.5918 64.6586 9.40166 66.1166C10.338 67.7578 11.6932 69.1209 13.329 70.0667C14.9647 71.0126 16.8222 71.5071 18.7117 71.4999H67.2883C69.1654 71.52 71.0145 71.0445 72.6491 70.1216C74.2837 69.1986 75.6459 67.8609 76.5983 66.2433C77.432 64.7701 77.8568 63.1009 77.829 61.4084C77.8012 59.7159 77.3216 58.0616 76.44 56.6166ZM43 58.8333C42.3737 58.8333 41.7614 58.6475 41.2407 58.2996C40.7199 57.9516 40.314 57.4571 40.0744 56.8784C39.8347 56.2998 39.772 55.6631 39.8942 55.0488C40.0164 54.4345 40.318 53.8703 40.7608 53.4274C41.2037 52.9846 41.7679 52.683 42.3822 52.5608C42.9965 52.4386 43.6332 52.5013 44.2118 52.741C44.7905 52.9807 45.285 53.3865 45.633 53.9073C45.9809 54.428 46.1667 55.0403 46.1667 55.6666C46.1667 56.5064 45.833 57.3119 45.2392 57.9058C44.6453 58.4996 43.8398 58.8333 43 58.8333ZM46.1667 46.1666C46.1667 47.0064 45.833 47.8119 45.2392 48.4058C44.6453 48.9996 43.8398 49.3333 43 49.3333C42.1601 49.3333 41.3547 48.9996 40.7608 48.4058C40.167 47.8119 39.8333 47.0064 39.8333 46.1666V33.4999C39.8333 32.6601 40.167 31.8546 40.7608 31.2608C41.3547 30.6669 42.1601 30.3333 43 30.3333C43.8398 30.3333 44.6453 30.6669 45.2392 31.2608C45.833 31.8546 46.1667 32.6601 46.1667 33.4999V46.1666Z" fill="#FF220E" fill-opacity="0.2"/>
<path d="M72.9201 55.1833L51.1885 19.1433C50.3097 17.7686 49.099 16.6373 47.668 15.8536C46.237 15.0699 44.6317 14.6592 43.0001 14.6592C41.3686 14.6592 39.7633 15.0699 38.3323 15.8536C36.9012 16.6373 35.6905 17.7686 34.8118 19.1433L13.0801 55.1833C12.3124 56.463 11.8952 57.9222 11.8703 59.4143C11.8455 60.9064 12.2138 62.3787 12.9385 63.6833C13.7762 65.1517 14.9888 66.3714 16.4524 67.2176C17.9159 68.0639 19.5779 68.5064 21.2685 68.4999H64.7318C66.4113 68.5179 68.0657 68.0925 69.5283 67.2667C70.9908 66.4409 72.2096 65.2439 73.0618 63.7966C73.8077 62.4785 74.1878 60.985 74.1629 59.4707C74.138 57.9563 73.709 56.4762 72.9201 55.1833ZM43.0001 57.1666C42.4397 57.1666 41.8919 57.0004 41.426 56.6891C40.9601 56.3778 40.5969 55.9353 40.3825 55.4175C40.168 54.8998 40.1119 54.3301 40.2212 53.7805C40.3306 53.2309 40.6004 52.7261 40.9967 52.3298C41.3929 51.9336 41.8978 51.6637 42.4474 51.5544C42.997 51.4451 43.5667 51.5012 44.0844 51.7156C44.6021 51.9301 45.0446 52.2932 45.3559 52.7592C45.6673 53.2251 45.8335 53.7729 45.8335 54.3333C45.8335 55.0847 45.5349 55.8054 45.0036 56.3368C44.4722 56.8681 43.7516 57.1666 43.0001 57.1666ZM45.8335 45.8333C45.8335 46.5847 45.5349 47.3054 45.0036 47.8367C44.4722 48.3681 43.7516 48.6666 43.0001 48.6666C42.2487 48.6666 41.528 48.3681 40.9967 47.8367C40.4653 47.3054 40.1668 46.5847 40.1668 45.8333V34.4999C40.1668 33.7485 40.4653 33.0278 40.9967 32.4965C41.528 31.9651 42.2487 31.6666 43.0001 31.6666C43.7516 31.6666 44.4722 31.9651 45.0036 32.4965C45.5349 33.0278 45.8335 33.7485 45.8335 34.4999V45.8333Z" fill="#F5B71C"/>
</svg>
