<svg width="24" height="24" viewBox="0 0 24 24" fill="none" xmlns="http://www.w3.org/2000/svg">
<g clip-path="url(#clip0_709_14865)">
<path d="M3.63605 11.2929C3.44858 11.4805 3.34326 11.7348 3.34326 11.9999C3.34326 12.2651 3.44858 12.5194 3.63605 12.7069L9.29305 18.3639C9.48165 18.5461 9.73425 18.6469 9.99645 18.6446C10.2586 18.6423 10.5095 18.5372 10.6949 18.3518C10.8803 18.1663 10.9854 17.9155 10.9877 17.6533C10.99 17.3911 10.8892 17.1385 10.707 16.9499L6.75705 12.9999H20C20.2653 12.9999 20.5196 12.8946 20.7072 12.707C20.8947 12.5195 21 12.2652 21 11.9999C21 11.7347 20.8947 11.4804 20.7072 11.2928C20.5196 11.1053 20.2653 10.9999 20 10.9999H6.75705L10.707 7.04994C10.8892 6.86133 10.99 6.60873 10.9877 6.34653C10.9854 6.08434 10.8803 5.83353 10.6949 5.64812C10.5095 5.46271 10.2586 5.35754 9.99645 5.35526C9.73425 5.35298 9.48165 5.45378 9.29305 5.63594L3.63605 11.2929Z" fill="white"/>
</g>
<defs>
<clipPath id="clip0_709_14865">
<rect width="24" height="24" fill="white"/>
</clipPath>
</defs>
</svg>
