<svg width="32" height="32" viewBox="0 0 32 32" fill="none" xmlns="http://www.w3.org/2000/svg">
<path d="M5.33341 29.3333C4.60008 29.3333 3.97253 29.0724 3.45075 28.5506C2.92897 28.0288 2.66764 27.4008 2.66675 26.6666V10.6666C2.66675 9.93328 2.92808 9.30573 3.45075 8.78395C3.97341 8.26217 4.60097 8.00084 5.33341 7.99995H10.6667L15.0667 3.59995C15.3334 3.33328 15.6445 3.19995 16.0001 3.19995C16.3556 3.19995 16.6667 3.33328 16.9334 3.59995L21.3334 7.99995H26.6667C27.4001 7.99995 28.0281 8.26128 28.5507 8.78395C29.0734 9.30662 29.3343 9.93417 29.3334 10.6666V26.6666C29.3334 27.4 29.0725 28.028 28.5507 28.5506C28.029 29.0733 27.401 29.3342 26.6667 29.3333H5.33341ZM5.33341 26.6666H26.6667V10.6666H5.33341V26.6666ZM15.0001 22.6666L12.5334 19.3666C12.4001 19.1888 12.2223 19.1 12.0001 19.1C11.7779 19.1 11.6001 19.1888 11.4667 19.3666L8.80008 22.9333C8.6223 23.1555 8.60008 23.3888 8.73342 23.6333C8.86675 23.8777 9.06675 24 9.33342 24H22.6667C22.9334 24 23.1334 23.8777 23.2668 23.6333C23.4001 23.3888 23.3779 23.1555 23.2001 22.9333L19.5334 18.0333C19.4001 17.8555 19.2223 17.7666 19.0001 17.7666C18.7779 17.7666 18.6001 17.8555 18.4667 18.0333L15.0001 22.6666ZM23.3334 17.3333C23.889 17.3333 24.3614 17.1391 24.7507 16.7506C25.1401 16.3622 25.3343 15.8897 25.3334 15.3333C25.3325 14.7768 25.1383 14.3048 24.7507 13.9173C24.3632 13.5297 23.8907 13.3351 23.3334 13.3333C22.7761 13.3315 22.3041 13.5262 21.9174 13.9173C21.5307 14.3084 21.3361 14.7804 21.3334 15.3333C21.3307 15.8862 21.5254 16.3586 21.9174 16.7506C22.3094 17.1426 22.7814 17.3368 23.3334 17.3333ZM13.4667 7.99995H18.5334L16.0001 5.46662L13.4667 7.99995Z" fill="white"/>
</svg>
