<svg width="32" height="32" viewBox="0 0 32 32" fill="none" xmlns="http://www.w3.org/2000/svg">
<path d="M9.33329 16H22.6666M12 10.6667H20M13.3333 21.3333H18.6666M21.6906 4H10.3093C9.96439 4.00157 9.62611 4.09473 9.32905 4.26997C9.03198 4.44521 8.78681 4.69623 8.61862 4.99733L2.92795 15.0093C2.75713 15.3116 2.66736 15.6528 2.66736 16C2.66736 16.3472 2.75713 16.6884 2.92795 16.9907L8.61862 27.0027C8.96529 27.6187 9.61062 27.9987 10.3093 28H21.6906C22.0355 27.9984 22.3738 27.9053 22.6709 27.73C22.9679 27.5548 23.2131 27.3038 23.3813 27.0027L29.072 16.9907C29.2428 16.6884 29.3326 16.3472 29.3326 16C29.3326 15.6528 29.2428 15.3116 29.072 15.0093L23.3813 4.99733C23.2131 4.69623 22.9679 4.44521 22.6709 4.26997C22.3738 4.09473 22.0355 4.00157 21.6906 4Z" stroke="#EBD10C" stroke-width="2.66667" stroke-linecap="round" stroke-linejoin="round"/>
</svg>
