<svg width="32" height="32" viewBox="0 0 32 32" fill="none" xmlns="http://www.w3.org/2000/svg">
<g clip-path="url(#clip0_709_14454)">
<path d="M15.25 18.5C17.5972 18.5 19.5 16.5972 19.5 14.25C19.5 11.9028 17.5972 10 15.25 10C12.9028 10 11 11.9028 11 14.25C11 16.5972 12.9028 18.5 15.25 18.5Z" stroke="black" stroke-width="1.5" stroke-linejoin="round"/>
<path d="M16.6643 12.5858C16.4787 12.3998 16.2582 12.2524 16.0155 12.1518C15.7728 12.0513 15.5127 11.9997 15.25 12C14.9873 11.9997 14.7272 12.0513 14.4845 12.1518C14.2418 12.2524 14.0213 12.3998 13.8358 12.5858M18.3055 17.3055L20.4268 19.4268" stroke="black" stroke-width="1.5" stroke-linecap="round" stroke-linejoin="round"/>
</g>
<path d="M18.6667 25.3333C23.6947 25.3333 26.2094 25.3333 27.7707 23.7707C29.332 22.208 29.3334 19.6947 29.3334 14.6667C29.3334 9.63867 29.3334 7.124 27.7707 5.56267C26.208 4.00133 23.6947 4 18.6667 4H13.3334C8.30535 4 5.79069 4 4.22935 5.56267C2.66802 7.12533 2.66669 9.63867 2.66669 14.6667C2.66669 19.6947 2.66669 22.2093 4.22935 23.7707C5.10002 24.6427 6.26669 25.028 8.00002 25.1973" stroke="black" stroke-width="2" stroke-linecap="round" stroke-linejoin="round"/>
<path d="M18.6667 25.3335C17.0187 25.3335 15.2027 26.0002 13.5453 26.8602C10.8813 28.2428 9.54935 28.9348 8.89335 28.4935C8.23735 28.0522 8.36135 26.6868 8.61068 23.9548L8.66668 23.3335" stroke="black" stroke-width="2" stroke-linecap="round"/>
<defs>
<clipPath id="clip0_709_14454">
<rect width="12" height="12" fill="white" transform="translate(10 9)"/>
</clipPath>
</defs>
</svg>
