<svg width="32" height="32" viewBox="0 0 32 32" fill="none" xmlns="http://www.w3.org/2000/svg">
<path d="M16 10.6665V14.6665M16 14.6665V18.6665M16 14.6665H20M16 14.6665H12" stroke="black" stroke-width="1.5" stroke-linecap="round"/>
<path d="M18.6667 25.3333C23.6947 25.3333 26.2094 25.3333 27.7707 23.7707C29.332 22.208 29.3334 19.6947 29.3334 14.6667C29.3334 9.63867 29.3334 7.124 27.7707 5.56267C26.208 4.00133 23.6947 4 18.6667 4H13.3334C8.30535 4 5.79069 4 4.22935 5.56267C2.66802 7.12533 2.66669 9.63867 2.66669 14.6667C2.66669 19.6947 2.66669 22.2093 4.22935 23.7707C5.10002 24.6427 6.26669 25.028 8.00002 25.1973" stroke="black" stroke-width="2" stroke-linecap="round" stroke-linejoin="round"/>
<path d="M18.6667 25.3335C17.0187 25.3335 15.2027 26.0002 13.5453 26.8602C10.8813 28.2428 9.54935 28.9348 8.89335 28.4935C8.23735 28.0522 8.36135 26.6868 8.61068 23.9548L8.66668 23.3335" stroke="black" stroke-width="2" stroke-linecap="round"/>
</svg>
