<svg width="32" height="32" viewBox="0 0 32 32" fill="none" xmlns="http://www.w3.org/2000/svg">
<path d="M5.33325 20.0001H7.99992C8.70716 20.0001 9.38544 20.281 9.88554 20.7811C10.3856 21.2812 10.6666 21.9595 10.6666 22.6667V25.3334H11.9999V22.6667C11.9999 21.9595 12.2809 21.2812 12.781 20.7811C13.2811 20.281 13.9593 20.0001 14.6666 20.0001H17.3333C18.0405 20.0001 18.7188 20.281 19.2189 20.7811C19.719 21.2812 19.9999 21.9595 19.9999 22.6667V25.3334H21.3333V22.6667C21.3333 21.9595 21.6142 21.2812 22.1143 20.7811C22.6144 20.281 23.2927 20.0001 23.9999 20.0001H26.6666C27.3738 20.0001 28.0521 20.281 28.5522 20.7811C29.0523 21.2812 29.3333 21.9595 29.3333 22.6667V25.3334H30.6666V29.3334H1.33325V25.3334H2.66659V22.6667C2.66659 21.9595 2.94754 21.2812 3.44763 20.7811C3.94773 20.281 4.62601 20.0001 5.33325 20.0001ZM14.6666 9.33342L19.9999 13.3334L14.6666 17.3334V9.33342ZM5.33325 2.66675H26.6666C27.3738 2.66675 28.0521 2.9477 28.5522 3.4478C29.0523 3.94789 29.3333 4.62617 29.3333 5.33341V18.0534C28.5255 17.5774 27.6041 17.3286 26.6666 17.3334V5.33341H5.33325V17.3334C4.35992 17.3334 3.45325 17.5867 2.66659 18.0534V5.33341C2.66659 4.62617 2.94754 3.94789 3.44763 3.4478C3.94773 2.9477 4.62601 2.66675 5.33325 2.66675Z" fill="black"/>
</svg>
