<?xml version="1.0" encoding="UTF-8"?>
<svg version="1.1" xmlns="http://www.w3.org/2000/svg" width="128" height="128">
<path d="M0 0 C1.8008329 0.00213753 1.8008329 0.00213753 3.63804626 0.00431824 C4.29997482 0.00241989 4.96190338 0.00052155 5.64389038 -0.00143433 C7.83599113 -0.00514486 10.02776198 0.00556479 12.21983337 0.01676941 C13.73915569 0.01796105 15.25847875 0.0184144 16.77780151 0.01815796 C19.96303412 0.01972324 23.14815441 0.02801699 26.33335876 0.04142761 C30.42489422 0.05843198 34.51630631 0.06224158 38.60787296 0.06148243 C41.74502754 0.06175377 44.88215491 0.06722896 48.01930046 0.07448387 C49.52844982 0.0776752 51.03760228 0.07963903 52.54675484 0.08037758 C54.65145799 0.08253544 56.7560278 0.09126706 58.86070251 0.10197449 C60.66034203 0.10769218 60.66034203 0.10769218 62.49633789 0.11352539 C65.18467712 0.24723816 65.18467712 0.24723816 66.18467712 1.24723816 C66.30967712 3.74723816 66.30967712 3.74723816 66.18467712 6.24723816 C65.18467712 7.24723816 65.18467712 7.24723816 62.44491577 7.36749268 C61.2213588 7.36527206 59.99780182 7.36305145 58.73716736 7.36076355 C57.72745377 7.36098259 57.72745377 7.36098259 56.69734192 7.36120605 C54.46261928 7.36050694 52.22797903 7.35271468 49.99327087 7.34489441 C48.44770351 7.34303022 46.90213555 7.34160632 45.35656738 7.34060669 C41.28110636 7.33678156 37.20568076 7.32695133 33.13023376 7.31590271 C28.9745583 7.30568848 24.81887714 7.30110904 20.66319275 7.29606628 C12.50367125 7.28532905 4.34417859 7.2682527 -3.81532288 7.24723816 C-4.44032288 4.87223816 -4.44032288 4.87223816 -4.81532288 2.24723816 C-2.81532288 0.24723816 -2.81532288 0.24723816 0 0 Z " fill="#FFFFFF" transform="translate(29.815322875976563,69.75276184082031)"/>
<path d="M0 0 C2.42895508 -0.3742218 2.42895508 -0.3742218 5.51953125 -0.37231445 C6.67412842 -0.37854324 7.82872559 -0.38477203 9.01831055 -0.39118958 C10.27039307 -0.38197983 11.52247559 -0.37277008 12.8125 -0.36328125 C14.09229736 -0.36377975 15.37209473 -0.36427826 16.69067383 -0.36479187 C19.40099852 -0.3647021 22.11102602 -0.35426453 24.82128906 -0.33618164 C28.29851254 -0.31349392 31.77530162 -0.31294976 35.25257874 -0.31969929 C38.56426893 -0.32384084 41.87582479 -0.31186968 45.1875 -0.30078125 C46.43958252 -0.30169266 47.69166504 -0.30260406 48.98168945 -0.30354309 C50.13628662 -0.29401108 51.29088379 -0.28447906 52.48046875 -0.2746582 C53.50035889 -0.27005081 54.52024902 -0.26544342 55.57104492 -0.26069641 C58 0 58 0 60 2 C59.67 3.65 59.34 5.3 59 7 C39.2 7 19.4 7 -1 7 C-1.33 5.68 -1.66 4.36 -2 3 C-1.34 2.01 -0.68 1.02 0 0 Z " fill="#FFFFFF" transform="translate(14,89)"/>
<path d="M0 0 C0.88602402 0.00222061 1.77204803 0.00444122 2.68492126 0.00672913 C3.68588333 0.00680466 4.6868454 0.00688019 5.71813965 0.00695801 C6.80666733 0.01211929 7.89519501 0.01728058 9.01670837 0.02259827 C10.67928932 0.02472069 10.67928932 0.02472069 12.37545776 0.02688599 C15.93168281 0.03250418 19.48784596 0.04505977 23.04405212 0.05775452 C25.44834809 0.06276717 27.85264504 0.06733048 30.25694275 0.07142639 C36.16516716 0.08247952 42.07335522 0.09923535 47.98155212 0.12025452 C48.60655212 1.93275452 48.60655212 1.93275452 48.98155212 4.12025452 C48.32155212 5.11025452 47.66155212 6.10025452 46.98155212 7.12025452 C44.93223572 7.48774719 44.93223572 7.48774719 42.37998962 7.47669983 C40.94840515 7.48120148 40.94840515 7.48120148 39.48789978 7.48579407 C37.93788269 7.46727386 37.93788269 7.46727386 36.35655212 7.44837952 C35.29871521 7.44650635 34.2408783 7.44463318 33.15098572 7.44270325 C30.91153315 7.43597234 28.67209255 7.42203741 26.432724 7.40150452 C22.99576452 7.37038321 19.55926344 7.36053855 16.12217712 7.35462952 C13.95029651 7.34545854 11.77842057 7.33508246 9.60655212 7.32337952 C8.05653503 7.3170047 8.05653503 7.3170047 6.47520447 7.3105011 C5.52081482 7.30089355 4.56642517 7.29128601 3.58311462 7.28138733 C2.74087341 7.27455933 1.8986322 7.26773132 1.03086853 7.26069641 C-1.01844788 7.12025452 -1.01844788 7.12025452 -3.01844788 6.12025452 C-3.06116888 4.45413547 -3.0590862 2.78642567 -3.01844788 1.12025452 C-2.01844788 0.12025452 -2.01844788 0.12025452 0 0 Z " fill="#FFFFFF" transform="translate(67.01844787597656,31.879745483398438)"/>
<path d="M0 0 C13.53 0 27.06 0 41 0 C41.495 2.475 41.495 2.475 42 5 C40 7 40 7 36.19287109 7.22705078 C34.5530258 7.22673346 32.91315983 7.21539681 31.2734375 7.1953125 C30.41062164 7.1924826 29.54780579 7.18965271 28.65884399 7.18673706 C25.8974228 7.17552333 23.1363235 7.15041684 20.375 7.125 C18.50521301 7.11497173 16.63542095 7.10584562 14.765625 7.09765625 C10.17695891 7.07558012 5.58853407 7.04104234 1 7 C-0.0625 4.625 -0.0625 4.625 -1 2 C-0.67 1.34 -0.34 0.68 0 0 Z " fill="#FFFFFF" transform="translate(13,32)"/>
<path d="M0 0 C1.56047445 0.00015913 3.12095416 0.00585397 4.68139648 0.01586914 C5.91115456 0.01799156 5.91115456 0.01799156 7.16575623 0.02015686 C9.79470406 0.0257725 12.42356797 0.0383276 15.05249023 0.05102539 C16.8304838 0.05603838 18.60847869 0.06060163 20.38647461 0.06469727 C24.75434569 0.07574701 29.12215371 0.09302208 33.48999023 0.11352539 C34.11499023 2.48852539 34.11499023 2.48852539 34.48999023 5.11352539 C31.93565272 7.6678629 30.2826514 7.35083332 26.80027771 7.36576843 C26.02628128 7.35858292 25.25228485 7.3513974 24.45483398 7.34399414 C23.26404991 7.34330681 23.26404991 7.34330681 22.04920959 7.34260559 C20.37051906 7.33958304 18.69183134 7.33169664 17.01318359 7.31933594 C14.43438865 7.30107424 11.85595247 7.29882626 9.27709961 7.29907227 C7.64884128 7.29415735 6.02058539 7.28832915 4.39233398 7.28149414 C3.22830299 7.27982491 3.22830299 7.27982491 2.04075623 7.27812195 C-3.39395969 7.22957546 -3.39395969 7.22957546 -4.51000977 6.11352539 C-4.63500977 3.61352539 -4.63500977 3.61352539 -4.51000977 1.11352539 C-3.51000977 0.11352539 -3.51000977 0.11352539 0 0 Z " fill="#FFFFFF" transform="translate(36.510009765625,50.886474609375)"/>
<path d="M0 0 C1.21042969 -0.00128906 2.42085937 -0.00257812 3.66796875 -0.00390625 C4.94285156 -0.00003906 6.21773437 0.00382812 7.53125 0.0078125 C9.44357422 0.00201172 9.44357422 0.00201172 11.39453125 -0.00390625 C13.21017578 -0.00197266 13.21017578 -0.00197266 15.0625 0 C16.18205078 0.00112793 17.30160156 0.00225586 18.45507812 0.00341797 C21.03125 0.1328125 21.03125 0.1328125 22.03125 1.1328125 C22.15625 3.6328125 22.15625 3.6328125 22.03125 6.1328125 C20.22845809 7.93560441 17.49077299 7.26317855 15.0625 7.265625 C13.85207031 7.26691406 12.64164063 7.26820312 11.39453125 7.26953125 C10.11964844 7.26566406 8.84476563 7.26179688 7.53125 7.2578125 C6.25636719 7.26167969 4.98148438 7.26554687 3.66796875 7.26953125 C1.85232422 7.26759766 1.85232422 7.26759766 0 7.265625 C-1.11955078 7.26449707 -2.23910156 7.26336914 -3.39257812 7.26220703 C-5.96875 7.1328125 -5.96875 7.1328125 -6.96875 6.1328125 C-7.09375 3.6328125 -7.09375 3.6328125 -6.96875 1.1328125 C-5.16595809 -0.66997941 -2.42827299 0.00244645 0 0 Z " fill="#FFFFFF" transform="translate(86.96875,50.8671875)"/>
</svg>
