<svg width="20" height="20" viewBox="0 0 20 20" fill="none" xmlns="http://www.w3.org/2000/svg">
<path d="M5.47417 1.875H10.7758C11.2792 1.875 11.6942 1.875 12.0325 1.9025C12.3833 1.93167 12.7067 1.99333 13.01 2.1475C13.4804 2.38718 13.8628 2.76962 14.1025 3.24C14.2575 3.54333 14.3192 3.86667 14.3475 4.2175C14.375 4.55583 14.375 4.97083 14.375 5.47417V5.625H14.7083C15.1275 5.625 15.4733 5.625 15.7558 5.64417C16.0492 5.66417 16.3208 5.7075 16.5817 5.815C16.8851 5.94064 17.1608 6.12482 17.393 6.35703C17.6252 6.58924 17.8094 6.86492 17.935 7.16833C18.0433 7.42917 18.085 7.70083 18.1058 7.99333C18.125 8.27667 18.125 8.6225 18.125 9.04083V9.08417C18.125 9.5025 18.125 9.84833 18.1058 10.1308C18.0938 10.4012 18.0407 10.6681 17.9483 10.9225C17.4677 12.5607 16.5897 14.0547 15.3922 15.2716C14.1948 16.4884 12.7152 17.3905 11.085 17.8975L10.9275 17.9467C10.672 18.0411 10.4031 18.0946 10.1308 18.105C9.8475 18.125 9.5025 18.125 9.08417 18.125H9.04083C8.6225 18.125 8.27667 18.125 7.99417 18.1058C7.70083 18.0858 7.42917 18.0425 7.16833 17.935C6.86492 17.8094 6.58924 17.6252 6.35703 17.393C6.12482 17.1608 5.94064 16.8851 5.815 16.5817C5.70667 16.3208 5.665 16.0492 5.64417 15.7567C5.625 15.4733 5.625 15.1275 5.625 14.7092V14.375H5.475C4.97167 14.375 4.55583 14.375 4.2175 14.3475C3.86667 14.3183 3.54333 14.2575 3.24 14.1025C2.76962 13.8628 2.38718 13.4804 2.1475 13.01C1.99333 12.7067 1.93083 12.3833 1.9025 12.0325C1.875 11.6942 1.875 11.2792 1.875 10.7758V5.47417C1.875 4.97083 1.875 4.55583 1.9025 4.2175C1.93167 3.86667 1.99333 3.54333 2.1475 3.24C2.38718 2.76962 2.76962 2.38718 3.24 2.1475C3.54333 1.99333 3.86667 1.93083 4.2175 1.9025C4.55583 1.875 4.97083 1.875 5.47417 1.875ZM6.875 14.6875C6.875 15.1325 6.875 15.4358 6.89167 15.6708C6.90667 15.9008 6.93583 16.02 6.97 16.1033C7.03282 16.255 7.12491 16.3929 7.24102 16.509C7.35712 16.6251 7.49496 16.7172 7.64667 16.78C7.73 16.8142 7.84917 16.8433 8.07917 16.8583C8.31417 16.875 8.6175 16.875 9.0625 16.875C9.5075 16.875 9.81083 16.875 10.0458 16.8583C10.2758 16.8433 10.395 16.8142 10.4783 16.78C10.63 16.7172 10.7679 16.6251 10.884 16.509C11.0001 16.3929 11.0922 16.255 11.155 16.1033C11.1892 16.02 11.2175 15.9008 11.2333 15.6708C11.25 15.4358 11.25 15.1325 11.25 14.6875V14.6658C11.25 14.2475 11.25 13.9017 11.2692 13.6192C11.2892 13.3258 11.3325 13.0542 11.44 12.7933C11.5656 12.4899 11.7498 12.2142 11.982 11.982C12.2142 11.7498 12.4899 11.5656 12.7933 11.44C13.0542 11.3317 13.3258 11.29 13.6183 11.2692C13.9017 11.25 14.2475 11.25 14.6658 11.25H14.6875C15.1325 11.25 15.4358 11.25 15.6708 11.2333C15.9008 11.2175 16.02 11.1892 16.1033 11.155C16.255 11.0922 16.3929 11.0001 16.509 10.884C16.6251 10.7679 16.7172 10.63 16.78 10.4783C16.8142 10.395 16.8433 10.2758 16.8583 10.0458C16.875 9.81083 16.875 9.5075 16.875 9.0625C16.875 8.6175 16.875 8.31417 16.8583 8.07917C16.8433 7.84917 16.8142 7.73 16.78 7.64667C16.7172 7.49496 16.6251 7.35712 16.509 7.24102C16.3929 7.12491 16.255 7.03282 16.1033 6.97C16.02 6.93583 15.9008 6.90667 15.6708 6.89167C15.4358 6.875 15.1325 6.875 14.6875 6.875H9.25C8.715 6.875 8.35 6.875 8.06917 6.89833C7.795 6.92083 7.655 6.96167 7.5575 7.01083C7.32209 7.13071 7.13071 7.32209 7.01083 7.5575C6.96083 7.655 6.92083 7.795 6.89833 8.06917C6.87583 8.35083 6.875 8.715 6.875 9.25V14.6875Z" fill="black"/>
</svg>
