<svg width="32" height="32" viewBox="0 0 32 32" fill="none" xmlns="http://www.w3.org/2000/svg">
<path d="M24 13C24 13.2652 23.8946 13.5196 23.7071 13.7071C23.5196 13.8946 23.2652 14 23 14C22.7348 14 22.4804 13.8946 22.2929 13.7071C22.1054 13.5196 22 13.2652 22 13C22 12.7348 22.1054 12.4804 22.2929 12.2929C22.4804 12.1054 22.7348 12 23 12C23.2652 12 23.5196 12.1054 23.7071 12.2929C23.8946 12.4804 24 12.7348 24 13ZM24 17C24 17.2652 23.8946 17.5196 23.7071 17.7071C23.5196 17.8946 23.2652 18 23 18C22.7348 18 22.4804 17.8946 22.2929 17.7071C22.1054 17.5196 22 17.2652 22 17C22 16.7348 22.1054 16.4804 22.2929 16.2929C22.4804 16.1054 22.7348 16 23 16C23.2652 16 23.5196 16.1054 23.7071 16.2929C23.8946 16.4804 24 16.7348 24 17ZM21 16C21.2652 16 21.5196 15.8946 21.7071 15.7071C21.8946 15.5196 22 15.2652 22 15C22 14.7348 21.8946 14.4804 21.7071 14.2929C21.5196 14.1054 21.2652 14 21 14C20.7348 14 20.4804 14.1054 20.2929 14.2929C20.1054 14.4804 20 14.7348 20 15C20 15.2652 20.1054 15.5196 20.2929 15.7071C20.4804 15.8946 20.7348 16 21 16ZM26 15C26 15.2652 25.8946 15.5196 25.7071 15.7071C25.5196 15.8946 25.2652 16 25 16C24.7348 16 24.4804 15.8946 24.2929 15.7071C24.1054 15.5196 24 15.2652 24 15C24 14.7348 24.1054 14.4804 24.2929 14.2929C24.4804 14.1054 24.7348 14 25 14C25.2652 14 25.5196 14.1054 25.7071 14.2929C25.8946 14.4804 26 14.7348 26 15ZM9.5 17C10.0304 17 10.5391 16.7893 10.9142 16.4142C11.2893 16.0391 11.5 15.5304 11.5 15C11.5 14.4696 11.2893 13.9609 10.9142 13.5858C10.5391 13.2107 10.0304 13 9.5 13C8.96957 13 8.46086 13.2107 8.08579 13.5858C7.71071 13.9609 7.5 14.4696 7.5 15C7.5 15.5304 7.71071 16.0391 8.08579 16.4142C8.46086 16.7893 8.96957 17 9.5 17ZM19.524 22.56C20.0544 22.56 20.5631 22.3493 20.9382 21.9742C21.3133 21.5991 21.524 21.0904 21.524 20.56C21.524 20.0296 21.3133 19.5209 20.9382 19.1458C20.5631 18.7707 20.0544 18.56 19.524 18.56C18.9936 18.56 18.4849 18.7707 18.1098 19.1458C17.7347 19.5209 17.524 20.0296 17.524 20.56C17.524 21.0904 17.7347 21.5991 18.1098 21.9742C18.4849 22.3493 18.9936 22.56 19.524 22.56ZM14.294 20.06H14.694C14.974 20.06 15.244 20.25 15.274 20.53C15.344 20.89 15.064 21.21 14.714 21.21H14.284C14.1302 21.21 13.9826 21.2711 13.8739 21.3799C13.7651 21.4887 13.704 21.6362 13.704 21.79V22.22C13.704 22.57 13.384 22.85 13.024 22.78C12.744 22.73 12.554 22.46 12.554 22.18V21.78C12.554 21.6262 12.4929 21.4787 12.3841 21.3699C12.2754 21.2611 12.1278 21.2 11.974 21.2H11.544C11.194 21.2 10.914 20.88 10.984 20.52C11.034 20.24 11.304 20.05 11.584 20.05H11.984C12.304 20.05 12.564 19.79 12.564 19.47V19.04C12.564 18.69 12.884 18.41 13.244 18.48C13.524 18.53 13.714 18.8 13.714 19.08V19.48C13.714 19.8 13.974 20.06 14.294 20.06Z" fill="black"/>
<path d="M6.74712 8.597C6.02079 8.9511 5.38211 9.462 4.87715 10.0928C4.3722 10.7237 4.01356 11.4588 3.82712 12.245V12.249L3.79512 12.35L3.68012 12.732C3.1038 14.6571 2.58622 16.5994 2.12812 18.556C1.73312 20.251 1.36712 22.08 1.16412 23.721C0.968118 25.317 0.904118 26.894 1.22312 27.997C1.68312 29.593 3.13812 30.418 3.97312 30.792H3.97512C4.38751 30.9734 4.84209 31.0372 5.28847 30.9761C5.73485 30.915 6.15561 30.7315 6.50412 30.446L6.51312 30.439L6.52212 30.431L7.25112 29.808C8.35975 28.8607 9.46976 27.9151 10.5811 26.971C10.8701 26.7271 11.1601 26.4844 11.4511 26.243L11.4711 26.228L11.4771 26.223C11.6671 26.079 11.9031 26 12.1521 26H19.8481C20.0731 26 20.3081 26.075 20.5121 26.216L25.4991 30.441L25.5061 30.446C25.9101 30.776 26.3961 30.916 26.8001 30.958C27.1951 31 27.6481 30.963 28.0301 30.795C28.8721 30.425 30.3141 29.59 30.7851 28.004L30.7871 27.997L30.7891 27.99C31.0991 26.888 31.0291 25.313 30.8261 23.718C30.6191 22.078 30.2481 20.25 29.8511 18.555C29.3591 16.4689 28.8001 14.3992 28.1751 12.349L28.1441 12.249L28.1431 12.245C27.6581 10.262 26.2241 8.835 24.4021 8.269C23.3601 7.52 21.9201 7 19.9301 7L19.0201 8H12.5441L11.6341 7C9.36512 7 7.81112 7.674 6.74712 8.597ZM5.74412 12.817L5.75712 12.777L5.76512 12.743C6.15912 11.085 7.59012 10 9.36912 10H22.6011C24.3891 10 25.8111 11.084 26.2061 12.743L26.2141 12.777L26.2341 12.841L26.2631 12.936L26.3751 13.306C26.9416 15.1916 27.4512 17.0938 27.9031 19.01C28.2931 20.674 28.6471 22.426 28.8431 23.97C29.0431 25.553 29.0531 26.764 28.8661 27.44C28.6561 28.134 27.9461 28.645 27.2341 28.96L27.1831 28.97C27.1256 28.975 27.0677 28.975 27.0101 28.97C26.9268 28.9667 26.8457 28.9426 26.7741 28.9L21.7461 24.64L21.7161 24.618C21.1741 24.2211 20.5209 24.0049 19.8491 24H12.1531C11.4831 24 10.8191 24.212 10.2701 24.63C10.0551 24.792 8.76912 25.885 7.58612 26.893C6.98312 27.407 6.39212 27.911 5.95212 28.288L5.23312 28.902C5.17186 28.9511 5.09857 28.983 5.02084 28.9942C4.94312 29.0055 4.8638 28.9957 4.79112 28.966C4.04812 28.634 3.34412 28.13 3.14512 27.442V27.44C2.95012 26.767 2.95512 25.555 3.15012 23.966C3.34012 22.423 3.69012 20.672 4.07712 19.009C4.55499 16.9672 5.09894 14.9415 5.70812 12.935L5.73812 12.84L5.74412 12.817Z" fill="black"/>
</svg>
