<svg width="20" height="20" viewBox="0 0 20 20" fill="none" xmlns="http://www.w3.org/2000/svg">
<path d="M10 10.8332V1.6665L16.6667 4.99984L10 8.33317" stroke="black" stroke-width="1.66667" stroke-linecap="round" stroke-linejoin="round"/>
<path d="M17.1341 8.5182C17.5776 9.88498 17.6191 11.3504 17.2537 12.7401C16.8883 14.1298 16.1313 15.3852 15.0729 16.3571C14.0146 17.329 12.6992 17.9764 11.2835 18.2222C9.86777 18.4681 8.41121 18.3021 7.08711 17.7439C5.76301 17.1858 4.62711 16.2591 3.81455 15.0739C3.00199 13.8888 2.54698 12.4952 2.50366 11.059C2.46033 9.6227 2.83051 8.20421 3.57015 6.97227C4.30979 5.74033 5.38776 4.74679 6.67581 4.10986" stroke="black" stroke-width="1.66667" stroke-linecap="round" stroke-linejoin="round"/>
<path d="M6.66833 8.33057C6.25075 8.88642 5.97889 9.53792 5.87753 10.2257C5.77617 10.9135 5.84852 11.6158 6.088 12.2684C6.32747 12.9211 6.72646 13.5035 7.2486 13.9625C7.77075 14.4216 8.39945 14.7427 9.07744 14.8965C9.75542 15.0504 10.4611 15.0322 11.1303 14.8436C11.7994 14.6549 12.4107 14.3018 12.9085 13.8165C13.4063 13.3311 13.7747 12.7289 13.9802 12.0648C14.1857 11.4006 14.2217 10.6956 14.085 10.0139" stroke="black" stroke-width="1.66667" stroke-linecap="round" stroke-linejoin="round"/>
</svg>
