<!DOCTYPE svg PUBLIC "-//W3C//DTD SVG 1.1//EN" "http://www.w3.org/Graphics/SVG/1.1/DTD/svg11.dtd">
<!-- Uploaded to: SVG Find, www.svgrepo.com, Transformed by: SVG Find Mixer Tools -->
<svg fill="#000000" width="800px" height="800px" version="1.1" viewBox="144 144 512 512" xmlns="http://www.w3.org/2000/svg" stroke="#000000" stroke-width="13.312000000000001">
<g id="SVGRepo_bgCarrier" stroke-width="0"/>
<g id="SVGRepo_tracerCarrier" stroke-linecap="round" stroke-linejoin="round" stroke="#000000" stroke-width="1.024"/>
<g id="SVGRepo_iconCarrier"> <g> <path d="m582.37 593.37h-398.11c-4.5156 0-8.1836-3.6641-8.1836-8.1797v-389.73c0-4.5156 3.668-8.1836 8.1836-8.1836s8.1797 3.668 8.1797 8.1836v381.55h389.96c4.5156 0 8.1836 3.6641 8.1836 8.1797-0.035157 4.5156-3.6992 8.1797-8.2148 8.1797z"/> <path d="m575.25 609.67 42.34-24.477-42.34-24.441z"/> <path d="m481.28 405.38c-2.0938 0-4.1914-0.78516-5.793-2.3867-3.207-3.207-3.207-8.3789 0-11.555l91.492-91.426c3.207-3.207 8.375-3.207 11.551 0 3.207 3.207 3.207 8.3789 0 11.551l-91.492 91.43c-1.5703 1.6016-3.6641 2.3867-5.7578 2.3867z"/> <path d="m441.96 406.07c-2.0938 0-4.1875-0.78516-5.7891-2.3867l-44.371-44.34c-3.207-3.207-3.207-8.3789 0-11.551 3.1719-3.207 8.3711-3.207 11.547 0l44.375 44.34c3.207 3.207 3.207 8.375 0 11.551-1.5703 1.5703-3.6641 2.3867-5.7617 2.3867z"/> <path d="m260.98 462.45c-2.0938 0-4.1914-0.78516-5.793-2.3906-3.207-3.207-3.207-8.3789 0-11.551l100.13-100.07c3.207-3.207 8.375-3.207 11.551 0 3.2031 3.207 3.2031 8.375 0 11.551l-100.13 100.07c-1.5703 1.5703-3.6641 2.3906-5.7578 2.3906z"/> <path d="m243.18 505.38c-18.391 0-33.344-14.953-33.344-33.344 0-18.391 14.953-33.344 33.344-33.344 18.391 0 33.344 14.953 33.344 33.344 0 18.391-14.953 33.344-33.344 33.344zm0-50.297c-9.3594 0-16.984 7.625-16.984 16.984 0 9.3594 7.625 16.984 16.984 16.984 9.3594 0 16.98-7.625 16.98-16.984 0-9.3594-7.5898-16.984-16.98-16.984z"/> <path d="m379.06 369.94c-18.387 0-33.344-14.957-33.344-33.348s14.957-33.344 33.344-33.344c18.391 0 33.348 14.953 33.348 33.344 0.03125 18.391-14.957 33.348-33.348 33.348zm0-50.332c-9.3555 0-16.984 7.6289-16.984 16.984 0 9.3594 7.6289 16.984 16.984 16.984 9.3594 0 16.988-7.625 16.988-16.984 0.03125-9.3555-7.5938-16.984-16.988-16.984z"/> <path d="m461.94 446.38c-18.391 0-33.34-14.957-33.34-33.348 0-18.387 14.949-33.344 33.34-33.344s33.348 14.957 33.348 33.344c0 18.391-14.957 33.348-33.348 33.348zm0-50.332c-9.3594 0-16.98 7.6289-16.98 16.984 0 9.3594 7.6211 16.984 16.98 16.984s17.016-7.625 17.016-16.984c0-9.3555-7.6562-16.984-17.016-16.984z"/> <path d="m590.57 321.32c-18.391 0-33.344-14.953-33.344-33.344 0-18.391 14.953-33.344 33.344-33.344 18.391 0 33.348 14.953 33.348 33.344 0 18.391-14.957 33.344-33.348 33.344zm0-50.328c-9.3555 0-17.016 7.625-17.016 16.984 0 9.3555 7.625 16.98 17.016 16.98 9.3594 0 16.984-7.625 16.984-16.98 0-9.3594-7.625-16.984-16.984-16.984z"/> </g> </g>
</svg>