<svg width="48" height="49" viewBox="0 0 48 49" fill="none" xmlns="http://www.w3.org/2000/svg">
<path d="M10 6.5H36C37.5913 6.5 39.1174 7.13214 40.2426 8.25736C41.3679 9.38258 42 10.9087 42 12.5V38.5C42 40.0913 41.3679 41.6174 40.2426 42.7426C39.1174 43.8679 37.5913 44.5 36 44.5H10C8.4087 44.5 6.88258 43.8679 5.75736 42.7426C4.63214 41.6174 4 40.0913 4 38.5V12.5C4 10.9087 4.63214 9.38258 5.75736 8.25736C6.88258 7.13214 8.4087 6.5 10 6.5ZM10 8.5C8.93913 8.5 7.92172 8.92143 7.17157 9.67157C6.42143 10.4217 6 11.4391 6 12.5V35.68L14.58 27.08L19.58 32.08L29.58 22.08L40 32.5V12.5C40 11.4391 39.5786 10.4217 38.8284 9.67157C38.0783 8.92143 37.0609 8.5 36 8.5H10ZM19.58 34.92L14.58 29.92L6 38.5C6 39.5609 6.42143 40.5783 7.17157 41.3284C7.92172 42.0786 8.93913 42.5 10 42.5H36C37.0609 42.5 38.0783 42.0786 38.8284 41.3284C39.5786 40.5783 40 39.5609 40 38.5V35.32L29.58 24.92L19.58 34.92ZM15 12.5C16.3261 12.5 17.5979 13.0268 18.5355 13.9645C19.4732 14.9021 20 16.1739 20 17.5C20 18.8261 19.4732 20.0979 18.5355 21.0355C17.5979 21.9732 16.3261 22.5 15 22.5C13.6739 22.5 12.4021 21.9732 11.4645 21.0355C10.5268 20.0979 10 18.8261 10 17.5C10 16.1739 10.5268 14.9021 11.4645 13.9645C12.4021 13.0268 13.6739 12.5 15 12.5ZM15 14.5C14.2044 14.5 13.4413 14.8161 12.8787 15.3787C12.3161 15.9413 12 16.7044 12 17.5C12 18.2956 12.3161 19.0587 12.8787 19.6213C13.4413 20.1839 14.2044 20.5 15 20.5C15.7956 20.5 16.5587 20.1839 17.1213 19.6213C17.6839 19.0587 18 18.2956 18 17.5C18 16.7044 17.6839 15.9413 17.1213 15.3787C16.5587 14.8161 15.7956 14.5 15 14.5Z" fill="black" fill-opacity="0.6"/>
</svg>
