<svg width="32" height="32" viewBox="0 0 32 32" fill="none" xmlns="http://www.w3.org/2000/svg">
<path d="M26.6667 3.88403V24C26.6663 24.849 26.3957 25.6759 25.8942 26.3609C25.3926 27.046 24.6861 27.5536 23.8769 27.8105C23.0676 28.0673 22.1977 28.0601 21.3929 27.7897C20.5881 27.5193 19.8902 26.9998 19.4002 26.3065C18.9102 25.6131 18.6535 24.7819 18.6673 23.933C18.6811 23.0841 18.9646 22.2616 19.4769 21.5845C19.9891 20.9074 20.7035 20.4109 21.5167 20.1668C22.3299 19.9227 23.1996 19.9437 24.0001 20.2267V10.784L10.6667 11.8934V25.3334C10.6663 26.1824 10.3957 27.0092 9.89417 27.6943C9.39262 28.3793 8.6861 28.887 7.87687 29.1438C7.06764 29.4007 6.19767 29.3934 5.39286 29.123C4.58806 28.8526 3.89015 28.3332 3.40016 27.6398C2.91016 26.9465 2.65348 26.1152 2.66728 25.2663C2.68107 24.4174 2.96461 23.5949 3.47687 22.9178C3.98913 22.2408 4.70354 21.7443 5.51671 21.5002C6.32988 21.2561 7.19962 21.277 8.00008 21.56V5.44003L26.6667 3.88403Z" fill="black"/>
</svg>
