<svg width="32" height="32" viewBox="0 0 32 32" fill="none" xmlns="http://www.w3.org/2000/svg">
<path d="M25.4686 17.1841C26.1226 17.1754 26.7793 17.2074 27.4333 17.1688C28.2866 17.0914 28.9853 16.3101 28.9919 15.4534C29.0079 13.1628 28.9906 10.8734 28.9993 8.58276C29.0046 8.21743 28.9773 7.8401 28.8106 7.50876C28.5206 6.86743 27.8073 6.4821 27.1179 6.51543C24.0239 6.51676 20.9293 6.51476 17.8353 6.51676C17.0373 6.48476 16.2553 7.04343 16.0673 7.83143C15.9486 8.4021 16.0246 8.99076 16.0066 9.5681M25.4686 17.1841C25.0686 17.1841 24.6686 17.1861 24.2686 17.1914C22.3719 17.2021 20.4753 17.1881 18.5799 17.1968C18.2706 17.1794 18.1086 17.4894 17.9046 17.6701C17.2713 18.2948 16.6766 18.9628 16.0073 19.5501C15.9753 16.6454 15.9906 13.7388 15.9999 10.8328C16.0064 10.4115 16.0086 9.98944 16.0066 9.5681M25.4686 17.1841C25.4313 19.3201 25.4653 21.4574 25.4513 23.5928C25.4839 24.1128 25.0579 24.5808 24.5579 24.6534C24.1479 24.7201 23.8019 24.4454 23.4466 24.2934C22.2093 23.6788 20.8153 23.4248 19.4419 23.4688C17.5566 23.5541 15.7286 24.3128 14.2599 25.4868C13.8373 25.2314 13.4573 24.9108 13.0306 24.6621C11.4939 23.7674 9.68859 23.2888 7.91059 23.4741C6.70393 23.5628 5.54993 23.9941 4.48459 24.5528C3.83259 24.9228 2.95459 24.3328 3.00726 23.5928C2.99726 19.4828 3.00726 15.3714 3.00193 11.2614C2.98659 10.8714 3.07193 10.4168 3.43059 10.1968C6.10659 8.71276 9.42393 8.47676 12.2933 9.51943C12.9673 9.7141 13.5713 10.0794 14.2033 10.3748C14.8059 10.1301 15.3833 9.7861 16.0066 9.5681M14.2033 11.3681C14.2333 15.0181 14.2473 20.2994 14.2599 23.9494M5.06459 13.7268H12.1066M5.06459 20.0181H7.41193M5.06459 15.3001H8.19459M5.06459 16.8734H12.1066M9.75993 18.4454H12.1066M5.06459 18.4454H8.19459M9.75926 15.3001H12.1066M8.97726 20.0181H12.1066M19.1493 9.00943H26.1913M19.1493 10.5821H22.2793M19.1493 12.1548H26.1913M23.8439 13.7274H26.1913M19.1493 13.7274H22.2793M23.8439 10.5821H26.1913" stroke="#242424" stroke-linecap="round" stroke-linejoin="round"/>
</svg>
