<svg width="32" height="32" viewBox="0 0 32 32" fill="none" xmlns="http://www.w3.org/2000/svg">
<g clip-path="url(#clip0_709_14966)">
<path d="M25.992 7.99995C24.7935 6.50124 23.2731 5.29155 21.5433 4.46061C19.8136 3.62967 17.919 3.1988 16 3.19995C14.081 3.1988 12.1864 3.62967 10.4567 4.46061C8.72694 5.29155 7.20646 6.50124 6.008 7.99995H8.16C10.2519 5.94548 13.0679 4.79609 16 4.79995C18.9315 4.79651 21.7469 5.94586 23.8384 7.99995H25.992ZM28.7008 17.6H27.088C26.6829 20.4024 25.2316 22.9475 23.0259 24.7232C20.8202 26.4988 18.0239 27.3732 15.1995 27.1704C12.3752 26.9677 9.73245 25.7028 7.80301 23.6303C5.87356 21.5579 4.8006 18.8316 4.8 16H3.2C3.19757 19.2576 4.43734 22.3936 6.66668 24.769C8.89603 27.1444 11.9472 28.5804 15.1985 28.7844C18.4497 28.9884 21.6565 27.945 24.1652 25.8669C26.674 23.7888 28.296 20.8324 28.7008 17.6ZM4.8 9.59995H28.8V12.8H27.2V16H25.6V17.6H19.2V16H17.6V12.8H16V16H14.4V17.6H8V16H6.4V12.8H3.2V11.2H4.8V9.59995ZM1.6 14.4V12.8H3.2V14.4H1.6ZM1.6 14.4V17.6H0V14.4H1.6ZM8 12.8V14.4H9.6V12.8H8ZM9.6 14.4V16H11.2V14.4H9.6ZM19.2 12.8V14.4H20.8V12.8H19.2ZM20.8 14.4V16H22.4V14.4H20.8ZM11.0224 20.0224C10.9562 19.9406 10.8746 19.8727 10.7822 19.8225C10.6897 19.7724 10.5883 19.7409 10.4837 19.7299C10.3791 19.7189 10.2734 19.7286 10.1725 19.7585C10.0717 19.7883 9.97773 19.8378 9.896 19.904C9.81427 19.9701 9.74637 20.0518 9.69618 20.1442C9.646 20.2366 9.61451 20.338 9.60351 20.4426C9.59252 20.5472 9.60224 20.653 9.63211 20.7538C9.66197 20.8546 9.71141 20.9486 9.7776 21.0304C10.5277 21.958 11.4758 22.7061 12.5525 23.2199C13.6291 23.7337 14.807 24.0002 16 24C18.512 24 20.7568 22.84 22.2224 21.0288C22.3559 20.8637 22.4183 20.6524 22.3959 20.4413C22.3736 20.2302 22.2683 20.0366 22.1032 19.9032C21.9381 19.7697 21.7268 19.7073 21.5157 19.7296C21.3046 19.752 21.1111 19.8573 20.9776 20.0224C20.3777 20.7648 19.6194 21.3636 18.7581 21.775C17.8968 22.1864 16.9545 22.3999 16 22.4C15.0455 22.3999 14.1032 22.1864 13.2419 21.775C12.3806 21.3636 11.6223 20.7648 11.0224 20.0224Z" fill="#242424"/>
</g>
<defs>
<clipPath id="clip0_709_14966">
<rect width="32" height="32" fill="white"/>
</clipPath>
</defs>
</svg>
