<svg width="32" height="32" viewBox="0 0 32 32" fill="none" xmlns="http://www.w3.org/2000/svg">
<path fill-rule="evenodd" clip-rule="evenodd" d="M22.2066 4.20924C23.9159 5.91991 24.9999 8.43324 24.9999 11.6666V12.6666H26.1706C27.9213 12.6666 28.6413 14.9132 27.2159 15.9319L25.1959 17.3746C25.8359 18.8812 27.4479 21.2306 30.2746 22.0386C30.426 22.0818 30.5649 22.1602 30.6803 22.2673C30.7956 22.3744 30.884 22.5073 30.9384 22.655C30.9927 22.8027 31.0113 22.9612 30.9928 23.1175C30.9744 23.2738 30.9192 23.4236 30.8319 23.5546C30.5479 23.9812 30.0319 24.5692 29.3519 25.0612C28.7919 25.4652 28.0679 25.8386 27.2293 25.9599L26.3653 27.2546L26.3173 27.3279L26.3119 27.3359L26.2813 27.3799L26.2706 27.3959L26.2573 27.4159V27.4186L26.2546 27.4212L26.2453 27.4346L26.2439 27.4372L26.2426 27.4386L26.2399 27.4426L26.2373 27.4479L26.2346 27.4506V27.4519L26.2319 27.4546L26.2306 27.4572L26.2293 27.4586L26.2266 27.4612L26.2226 27.4692V27.4706L26.2199 27.4732L26.2159 27.4786V27.4799L26.2119 27.4839L26.2093 27.4892L26.2079 27.4919L26.2053 27.4946L26.2026 27.4986L26.1999 27.5026L26.1973 27.5066V27.5079L26.1946 27.5106V27.5119L26.1919 27.5132V27.5159L26.1893 27.5186L26.1866 27.5226L26.1853 27.5252L26.1839 27.5279H26.1826V27.5306L26.1813 27.5332H26.1786V27.5359H26.1773V27.5386H26.1746V27.5412L26.1733 27.5439L26.1719 27.5466L26.1706 27.5492H26.1679V27.5519L26.1666 27.5532C26.0567 27.7185 25.9002 27.8472 25.7169 27.9232C25.5336 27.9992 25.3318 28.0189 25.1373 27.9799L22.2479 27.4026C21.6373 27.8532 20.7813 28.4106 19.8359 28.8919C18.6973 29.4692 17.3053 29.9999 15.9999 29.9999C14.6946 29.9999 13.3026 29.4692 12.1639 28.8919C11.3202 28.4622 10.513 27.9641 9.75061 27.4026L6.86261 27.9799C6.6684 28.0188 6.46702 27.9991 6.284 27.9234C6.10099 27.8477 5.94458 27.7193 5.83461 27.5546L4.77061 25.9599C3.93195 25.8399 3.20795 25.4652 2.64795 25.0612C2.07293 24.6464 1.57249 24.1369 1.16795 23.5546C1.08066 23.4236 1.02554 23.2738 1.00705 23.1175C0.988556 22.9612 1.00723 22.8027 1.06154 22.655C1.11585 22.5073 1.20427 22.3744 1.31961 22.2673C1.43494 22.1602 1.57394 22.0818 1.72528 22.0386C4.55195 21.2306 6.16395 18.8826 6.80528 17.3746L4.78261 15.9332C3.35595 14.9146 4.07728 12.6679 5.82795 12.6679H6.99861V11.6679C6.99861 8.43458 8.08261 5.92124 9.79195 4.21058C10.6088 3.39942 11.5775 2.75723 12.6427 2.32071C13.708 1.88419 14.8488 1.66191 15.9999 1.66658C18.2466 1.66658 20.5066 2.50924 22.2066 4.20924Z" fill="#F4D71C"/>
</svg>
