<svg width="32" height="32" viewBox="0 0 32 32" fill="none" xmlns="http://www.w3.org/2000/svg">
<path d="M16 3.19995C12.6052 3.19995 9.34945 4.54852 6.94898 6.94898C4.54852 9.34945 3.19995 12.6052 3.19995 16C3.19995 19.3947 4.54852 22.6505 6.94898 25.0509C9.34945 27.4514 12.6052 28.8 16 28.8C19.3947 28.8 22.6505 27.4514 25.0509 25.0509C27.4514 22.6505 28.8 19.3947 28.8 16C28.8 12.6052 27.4514 9.34945 25.0509 6.94898C22.6505 4.54852 19.3947 3.19995 16 3.19995ZM11.3472 5.80795L15.2032 8.05755V10.7776L10.7728 13.9008L8.27675 12.9936L7.27515 8.97435C8.36764 7.61644 9.76194 6.53222 11.3472 5.80795ZM4.85435 17.1072L7.77755 14.5152L10.2512 15.4128L11.9232 20.6768L10.776 22.3936H6.80315C5.71115 20.8276 5.04007 19.0072 4.85435 17.1072ZM13.3968 26.896L12.0928 23.3024L13.2288 21.6016H18.776L19.9136 23.3024L18.6096 26.8944C16.8961 27.3043 15.1102 27.3059 13.3968 26.896ZM25.1968 22.392H21.232L20.08 20.672L21.72 15.4128L24.2272 14.5104L27.1456 17.1056C26.9598 19.0056 26.2888 20.826 25.1968 22.392ZM24.7328 8.98395L23.7312 12.9888L21.1968 13.9008L16.8016 10.7776V8.05755L20.656 5.80795C22.2439 6.53434 23.64 7.62195 24.7328 8.98395Z" fill="black"/>
</svg>
