<svg width="32" height="32" viewBox="0 0 32 32" fill="none" xmlns="http://www.w3.org/2000/svg">
<path d="M6.66675 21.3334L13.3334 17.3334M18.6667 14.6667L25.3334 10.6667M16.0001 6.66675V13.3334M16.0001 18.6667V25.3334M6.66675 10.6667L13.3334 14.6667M18.6667 17.3334L25.3334 21.3334M27.3334 12.0001V19.3334M18.0001 27.3334L25.3334 23.3334M6.00008 23.3334L14.0001 27.3334M4.66675 20.0001V12.0001M6.00008 8.66675L14.0001 4.66675M26.0001 8.66675L18.0001 4.66675" stroke="#242424" stroke-width="2" stroke-linecap="round" stroke-linejoin="round"/>
<path d="M16 6.66675C17.1046 6.66675 18 5.77132 18 4.66675C18 3.56218 17.1046 2.66675 16 2.66675C14.8954 2.66675 14 3.56218 14 4.66675C14 5.77132 14.8954 6.66675 16 6.66675Z" stroke="#242424" stroke-width="2" stroke-linecap="round" stroke-linejoin="round"/>
<path d="M16 29.3335C17.1046 29.3335 18 28.4381 18 27.3335C18 26.2289 17.1046 25.3335 16 25.3335C14.8954 25.3335 14 26.2289 14 27.3335C14 28.4381 14.8954 29.3335 16 29.3335Z" stroke="#242424" stroke-width="2" stroke-linecap="round" stroke-linejoin="round"/>
<path d="M4.66675 12C5.77132 12 6.66675 11.1046 6.66675 10C6.66675 8.89543 5.77132 8 4.66675 8C3.56218 8 2.66675 8.89543 2.66675 10C2.66675 11.1046 3.56218 12 4.66675 12Z" stroke="#242424" stroke-width="2" stroke-linecap="round" stroke-linejoin="round"/>
<path d="M27.3335 12C28.4381 12 29.3335 11.1046 29.3335 10C29.3335 8.89543 28.4381 8 27.3335 8C26.2289 8 25.3335 8.89543 25.3335 10C25.3335 11.1046 26.2289 12 27.3335 12Z" stroke="#242424" stroke-width="2" stroke-linecap="round" stroke-linejoin="round"/>
<path d="M27.3335 24C28.4381 24 29.3335 23.1046 29.3335 22C29.3335 20.8954 28.4381 20 27.3335 20C26.2289 20 25.3335 20.8954 25.3335 22C25.3335 23.1046 26.2289 24 27.3335 24Z" stroke="#242424" stroke-width="2" stroke-linecap="round" stroke-linejoin="round"/>
<path d="M4.66675 24C5.77132 24 6.66675 23.1046 6.66675 22C6.66675 20.8954 5.77132 20 4.66675 20C3.56218 20 2.66675 20.8954 2.66675 22C2.66675 23.1046 3.56218 24 4.66675 24Z" stroke="#242424" stroke-width="2" stroke-linecap="round" stroke-linejoin="round"/>
<path d="M16.0002 13L18.6668 14.5V17.5L16.0002 19L13.3335 17.5V14.5L16.0002 13Z" stroke="#242424" stroke-width="2" stroke-linecap="round" stroke-linejoin="round"/>
</svg>
