<svg width="29" height="32" viewBox="0 0 29 32" fill="none" xmlns="http://www.w3.org/2000/svg">
<g clip-path="url(#clip0_709_14694)">
<path d="M20.9355 11.5224C22.9965 12.9949 25.5214 13.8614 28.2484 13.8614V8.61666C27.7322 8.61686 27.2175 8.56302 26.7126 8.456V12.5843C23.9859 12.5843 21.4613 11.718 19.3998 10.2456V20.9486C19.3998 26.3028 15.0571 30.6429 9.70052 30.6429C7.70184 30.6429 5.84408 30.039 4.3009 29.0032C6.06223 30.8033 8.5185 31.9198 11.2359 31.9198C16.5929 31.9198 20.9357 27.5798 20.9357 22.2253V11.5224H20.9355ZM22.8301 6.23112C21.7768 5.08099 21.0851 3.59465 20.9355 1.95139V1.27686H19.4802C19.8465 3.36535 21.0962 5.14963 22.8301 6.23112ZM7.68893 24.8946C7.10039 24.1235 6.78228 23.18 6.78377 22.2099C6.78377 19.7612 8.77009 17.7756 11.2207 17.7756C11.6774 17.7754 12.1313 17.8454 12.5666 17.9834V12.6214C12.0579 12.5518 11.5446 12.5221 11.0315 12.533V16.7065C10.596 16.5685 10.1418 16.4985 9.68496 16.4988C7.23442 16.4988 5.24821 18.4841 5.24821 20.9332C5.24821 22.665 6.24099 24.1642 7.68893 24.8946Z" fill="#FF004F"/>
<path d="M19.3998 10.2455C21.4614 11.7179 23.9857 12.5842 26.7126 12.5842V8.45589C25.1905 8.13181 23.843 7.33688 22.83 6.23112C21.0959 5.14952 19.8465 3.36524 19.4801 1.27686H15.6574V22.225C15.6487 24.6672 13.6658 26.6446 11.2205 26.6446C9.77959 26.6446 8.49937 25.9581 7.68866 24.8945C6.24094 24.1642 5.24806 22.6649 5.24806 20.9334C5.24806 18.4845 7.23426 16.4989 9.6848 16.4989C10.1543 16.4989 10.6068 16.572 11.0313 16.7066V12.5331C5.76877 12.6418 1.5365 16.9395 1.5365 22.2252C1.5365 24.8637 2.5904 27.2557 4.30097 29.0034C5.84414 30.039 7.7018 30.6431 9.70058 30.6431C15.0573 30.6431 19.3999 26.3027 19.3999 20.9486L19.3998 10.2455Z" fill="black"/>
<path d="M26.7126 8.45572V7.3397C25.34 7.34169 23.9946 6.95751 22.83 6.23106C23.8608 7.35902 25.2182 8.13686 26.7126 8.45595M19.48 1.27669C19.4451 1.07714 19.4183 0.876257 19.3997 0.674538V0H14.1215V20.9484C14.1131 23.3903 12.1302 25.3677 9.68472 25.3677C8.99145 25.3688 8.30766 25.2067 7.68858 24.8947C8.49928 25.9581 9.7795 26.6444 11.2204 26.6444C13.6656 26.6444 15.6487 24.6673 15.6574 22.2251V1.2768L19.48 1.27669ZM11.0316 12.533V11.3447C10.5905 11.2844 10.1459 11.2543 9.70072 11.2544C4.34348 11.2544 0.000854492 15.5947 0.000854492 20.9484C0.000854492 24.305 1.70756 27.2631 4.3011 29.0031C2.59054 27.2555 1.53663 24.8634 1.53663 22.225C1.53663 16.9395 5.7688 12.6417 11.0316 12.533Z" fill="#00F2EA"/>
</g>
<defs>
<clipPath id="clip0_709_14694">
<rect width="28.25" height="32" fill="white"/>
</clipPath>
</defs>
</svg>
