<svg width="32" height="32" viewBox="0 0 32 32" fill="none" xmlns="http://www.w3.org/2000/svg">
<path d="M18.6903 1.08795C18.5205 0.960602 18.3186 0.883054 18.1072 0.863993C17.8958 0.844933 17.6833 0.885113 17.4935 0.98003C17.3036 1.07495 17.144 1.22085 17.0324 1.4014C16.9208 1.58194 16.8617 1.78999 16.8617 2.00223C16.8617 5.76223 15.9566 10.6811 11.3623 12.6468C10.7406 11.7439 10.1463 10.2171 10.1463 8.00223C10.1461 7.80766 10.0962 7.61635 10.0014 7.44645C9.90654 7.27654 9.7699 7.13366 9.6044 7.03134C9.4389 6.92902 9.25002 6.87064 9.05564 6.86175C8.86127 6.85286 8.66785 6.89374 8.4937 6.98052C6.10284 8.17595 2.86169 11.5748 2.86169 18.0022C2.86169 22.3131 4.48912 25.6297 6.99427 27.8559C9.48112 30.0662 12.7611 31.1474 16.0046 31.1474C19.248 31.1474 22.528 30.0662 25.0148 27.8559C27.52 25.6297 29.1474 22.3131 29.1474 18.0045C29.1474 9.38509 22.6766 4.07538 18.6903 1.08795Z" fill="#F84E10"/>
</svg>
