<svg width="32" height="32" viewBox="0 0 32 32" fill="none" xmlns="http://www.w3.org/2000/svg">
<path d="M5.33325 13.6001C5.33325 6.96008 10.3999 2.66675 15.9999 2.66675C21.3333 2.66675 26.1866 6.56008 26.6266 12.6667H29.7199C30.3199 12.6667 30.6133 13.3867 30.1866 13.8001L25.7999 18.1867C25.5333 18.4534 25.1199 18.4534 24.8533 18.1867L20.4666 13.8001C20.3752 13.7069 20.3132 13.589 20.2883 13.4609C20.2633 13.3328 20.2765 13.2002 20.3262 13.0795C20.3759 12.9588 20.4599 12.8554 20.5678 12.782C20.6757 12.7087 20.8028 12.6686 20.9333 12.6667H23.9466C23.5333 8.32008 20.1733 5.33341 15.9999 5.33341C11.5333 5.33341 7.99992 8.76008 7.99992 13.6001C7.99992 16.7201 10.5999 20.8534 15.9999 25.7867C16.8533 25.0001 17.6399 24.2401 18.3599 23.5067C18.1253 23.0438 18.002 22.5324 17.9999 22.0134C17.9999 21.1294 18.3511 20.2815 18.9762 19.6564C19.6014 19.0313 20.4492 18.6801 21.3333 18.6801C22.2173 18.6801 23.0652 19.0313 23.6903 19.6564C24.3154 20.2815 24.6666 21.1294 24.6666 22.0134C24.6661 22.529 24.5457 23.0374 24.3148 23.4984C24.0839 23.9595 23.7488 24.3604 23.3362 24.6695C22.9235 24.9787 22.4446 25.1876 21.9373 25.2797C21.43 25.3717 20.9082 25.3445 20.4133 25.2001C19.3733 26.2934 18.1866 27.4134 16.8799 28.5601C16.3733 29.0001 15.6133 29.0001 15.1066 28.5601C8.59992 22.8267 5.33325 17.8401 5.33325 13.6001Z" fill="#242424"/>
</svg>
